<?xml version="1.0" encoding="UTF-8" standalone="no"?>
<!DOCTYPE svg PUBLIC "-//W3C//DTD SVG 1.1//EN"
 "http://www.w3.org/Graphics/SVG/1.1/DTD/svg11.dtd">
<!-- Generated by graphviz version 2.43.0 (0)
 -->
<!-- Title: ccx_solver_architecture Pages: 1 -->
<svg width="687pt" height="978pt"
 viewBox="0.00 0.00 687.00 977.60" xmlns="http://www.w3.org/2000/svg" xmlns:xlink="http://www.w3.org/1999/xlink">
<g id="graph0" class="graph" transform="scale(1 1) rotate(0) translate(4 973.6)">
<title>ccx_solver_architecture</title>
<polygon fill="white" stroke="transparent" points="-4,4 -4,-973.6 683,-973.6 683,4 -4,4"/>
<text text-anchor="start" x="124.5" y="-955.4" font-family="Helvetica,sans-Serif" font-weight="bold" font-size="14.00">CalculiX Rust Solver — Execution Flow &amp; Dependencies</text>
<g id="clust1" class="cluster">
<title>cluster_cli</title>
<polygon fill="#e8f5e9" stroke="#4caf50" points="391,-769.6 391,-844.6 495,-844.6 495,-769.6 391,-769.6"/>
<text text-anchor="start" x="418.5" y="-830.4" font-family="Helvetica,sans-Serif" font-weight="bold" font-size="14.00">ccx&#45;cli</text>
</g>
<g id="clust2" class="cluster">
<title>cluster_inp</title>
<polygon fill="#e3f2fd" stroke="#1e88e5" points="439,-635.6 439,-710.6 561,-710.6 561,-635.6 439,-635.6"/>
<text text-anchor="start" x="472" y="-696.4" font-family="Helvetica,sans-Serif" font-weight="bold" font-size="14.00">ccx&#45;inp</text>
</g>
<g id="clust3" class="cluster">
<title>cluster_model</title>
<polygon fill="#e3f2fd" stroke="#1e88e5" points="439,-522.6 439,-597.6 561,-597.6 561,-522.6 439,-522.6"/>
<text text-anchor="start" x="460" y="-583.4" font-family="Helvetica,sans-Serif" font-weight="bold" font-size="14.00">ccx&#45;model</text>
</g>
<g id="clust4" class="cluster">
<title>cluster_solver</title>
<polygon fill="#fffde7" stroke="#f9a825" stroke-width="2" points="8,-124 8,-741.6 431,-741.6 431,-124 8,-124"/>
<text text-anchor="start" x="179.5" y="-727.4" font-family="Helvetica,sans-Serif" font-weight="bold" font-size="14.00">ccx&#45;solver</text>
</g>
<g id="clust5" class="cluster">
<title>cluster_pipeline</title>
<polygon fill="#fff9c4" stroke="#fbc02d" stroke-width="2" points="244,-635.6 244,-710.6 377,-710.6 377,-635.6 244,-635.6"/>
<text text-anchor="middle" x="310.5" y="-695.4" font-family="Helvetica,sans-Serif" font-size="14.00">Analysis Pipeline</text>
</g>
<g id="clust6" class="cluster">
<title>cluster_builders</title>
<polygon fill="#fff9c4" stroke="#fbc02d" stroke-width="2" points="16,-522.6 16,-597.6 332,-597.6 332,-522.6 16,-522.6"/>
<text text-anchor="middle" x="174" y="-582.4" font-family="Helvetica,sans-Serif" font-size="14.00">Deck → Domain</text>
</g>
<g id="clust7" class="cluster">
<title>cluster_assembly</title>
<polygon fill="#fff9c4" stroke="#fbc02d" stroke-width="2" points="97,-385.6 97,-514.6 335,-514.6 335,-385.6 97,-385.6"/>
<text text-anchor="middle" x="216" y="-499.4" font-family="Helvetica,sans-Serif" font-size="14.00">Assembly Layer</text>
</g>
<g id="clust8" class="cluster">
<title>cluster_elements</title>
<polygon fill="#fff9c4" stroke="#fbc02d" stroke-width="2" points="16,-140 16,-321.8 158,-321.8 158,-140 16,-140"/>
<text text-anchor="middle" x="87" y="-306.6" font-family="Helvetica,sans-Serif" font-size="14.00">Element Library</text>
</g>
<g id="clust9" class="cluster">
<title>cluster_backend</title>
<polygon fill="#f3e5f5" stroke="#7b1fa2" stroke-width="2" points="171,-132 171,-347.6 419,-347.6 419,-132 171,-132"/>
<text text-anchor="start" x="189.5" y="-333.4" font-family="Helvetica,sans-Serif" font-weight="bold" font-size="14.00">Backend Abstraction Layer</text>
</g>
<g id="clust10" class="cluster">
<title>cluster_numlibs</title>
<polygon fill="#eceff1" stroke="#546e7a" points="29,-10.5 29,-85.5 421,-85.5 421,-10.5 29,-10.5"/>
<text text-anchor="start" x="148" y="-71.3" font-family="Helvetica,sans-Serif" font-weight="bold" font-size="14.00">Numerical Libraries</text>
</g>
<g id="clust11" class="cluster">
<title>cluster_petsc_eco</title>
<polygon fill="#ffebee" stroke="#c62828" points="429,-8 429,-88 665,-88 665,-8 429,-8"/>
<text text-anchor="start" x="437" y="-73.8" font-family="Helvetica,sans-Serif" font-weight="bold" font-size="14.00">PETSc Ecosystem (optional)</text>
</g>
<g id="clust12" class="cluster">
<title>cluster_io</title>
<polygon fill="#e3f2fd" stroke="#1e88e5" points="439,-246.8 439,-321.8 549,-321.8 549,-246.8 439,-246.8"/>
<text text-anchor="start" x="471" y="-307.6" font-family="Helvetica,sans-Serif" font-weight="bold" font-size="14.00">ccx&#45;io</text>
</g>
<g id="clust13" class="cluster">
<title>cluster_legend</title>
<polygon fill="white" stroke="#888888" points="569,-644.6 569,-938.6 671,-938.6 671,-644.6 569,-644.6"/>
<text text-anchor="middle" x="620" y="-923.4" font-family="Helvetica,sans-Serif" font-size="14.00">Legend</text>
</g>
<!-- input -->
<g id="node1" class="node">
<title>input</title>
<polygon fill="#e8f5e9" stroke="black" points="492,-916.6 388,-916.6 388,-880.6 498,-880.6 498,-910.6 492,-916.6"/>
<polyline fill="none" stroke="black" points="492,-916.6 492,-910.6 "/>
<polyline fill="none" stroke="black" points="498,-910.6 492,-910.6 "/>
<text text-anchor="middle" x="443" y="-901.6" font-family="Helvetica,sans-Serif" font-size="10.00">input.inp</text>
<text text-anchor="middle" x="443" y="-890.6" font-family="Helvetica,sans-Serif" font-size="10.00">(CalculiX input file)</text>
</g>
<!-- cli_main -->
<g id="node2" class="node">
<title>cli_main</title>
<path fill="#c8e6c9" stroke="black" d="M475,-813.6C475,-813.6 411,-813.6 411,-813.6 405,-813.6 399,-807.6 399,-801.6 399,-801.6 399,-789.6 399,-789.6 399,-783.6 405,-777.6 411,-777.6 411,-777.6 475,-777.6 475,-777.6 481,-777.6 487,-783.6 487,-789.6 487,-789.6 487,-801.6 487,-801.6 487,-807.6 481,-813.6 475,-813.6"/>
<text text-anchor="middle" x="443" y="-798.6" font-family="Helvetica,sans-Serif" font-size="10.00">main.rs</text>
<text text-anchor="middle" x="443" y="-787.6" font-family="Helvetica,sans-Serif" font-size="10.00">CLI entry point</text>
</g>
<!-- input&#45;&gt;cli_main -->
<g id="edge1" class="edge">
<title>input&#45;&gt;cli_main</title>
<path fill="none" stroke="black" d="M443,-880.46C443,-865.01 443,-842.01 443,-824.01"/>
<polygon fill="black" stroke="black" points="446.5,-823.82 443,-813.82 439.5,-823.82 446.5,-823.82"/>
<text text-anchor="middle" x="456.5" y="-855.4" font-family="Helvetica,sans-Serif" font-size="9.00"> &#160;read</text>
</g>
<!-- parser -->
<g id="node3" class="node">
<title>parser</title>
<path fill="#bbdefb" stroke="black" d="M541,-679.6C541,-679.6 459,-679.6 459,-679.6 453,-679.6 447,-673.6 447,-667.6 447,-667.6 447,-655.6 447,-655.6 447,-649.6 453,-643.6 459,-643.6 459,-643.6 541,-643.6 541,-643.6 547,-643.6 553,-649.6 553,-655.6 553,-655.6 553,-667.6 553,-667.6 553,-673.6 547,-679.6 541,-679.6"/>
<text text-anchor="middle" x="500" y="-664.6" font-family="Helvetica,sans-Serif" font-size="10.00">Deck::parse_file</text>
<text text-anchor="middle" x="500" y="-653.6" font-family="Helvetica,sans-Serif" font-size="10.00">INP/Abaqus parser</text>
</g>
<!-- cli_main&#45;&gt;parser -->
<g id="edge2" class="edge">
<title>cli_main&#45;&gt;parser</title>
<path fill="none" stroke="black" d="M450.45,-777.34C460.14,-754.91 477.15,-715.5 488.5,-689.23"/>
<polygon fill="black" stroke="black" points="491.8,-690.43 492.55,-679.86 485.37,-687.65 491.8,-690.43"/>
<text text-anchor="middle" x="476.5" y="-752.4" font-family="Helvetica,sans-Serif" font-size="9.00"> &#160;parse</text>
</g>
<!-- analysis -->
<g id="node5" class="node">
<title>analysis</title>
<path fill="#fff176" stroke="black" d="M346.5,-679.6C346.5,-679.6 273.5,-679.6 273.5,-679.6 267.5,-679.6 261.5,-673.6 261.5,-667.6 261.5,-667.6 261.5,-655.6 261.5,-655.6 261.5,-649.6 267.5,-643.6 273.5,-643.6 273.5,-643.6 346.5,-643.6 346.5,-643.6 352.5,-643.6 358.5,-649.6 358.5,-655.6 358.5,-655.6 358.5,-667.6 358.5,-667.6 358.5,-673.6 352.5,-679.6 346.5,-679.6"/>
<text text-anchor="middle" x="310" y="-664.6" font-family="Helvetica,sans-Serif" font-size="10.00">analysis.rs</text>
<text text-anchor="middle" x="310" y="-653.6" font-family="Helvetica,sans-Serif" font-size="10.00">AnalysisPipeline</text>
</g>
<!-- cli_main&#45;&gt;analysis -->
<g id="edge4" class="edge">
<title>cli_main&#45;&gt;analysis</title>
<path fill="none" stroke="black" d="M425.61,-777.34C417.68,-769.47 407.64,-759.51 396.81,-748.76"/>
<polygon fill="black" stroke="black" points="399.16,-746.15 389.59,-741.59 394.23,-751.12 399.16,-746.15"/>
<text text-anchor="middle" x="418" y="-752.4" font-family="Helvetica,sans-Serif" font-size="9.00"> &#160;run</text>
</g>
<!-- model -->
<g id="node4" class="node">
<title>model</title>
<path fill="#bbdefb" stroke="black" d="M541,-566.6C541,-566.6 459,-566.6 459,-566.6 453,-566.6 447,-560.6 447,-554.6 447,-554.6 447,-542.6 447,-542.6 447,-536.6 453,-530.6 459,-530.6 459,-530.6 541,-530.6 541,-530.6 547,-530.6 553,-536.6 553,-542.6 553,-542.6 553,-554.6 553,-554.6 553,-560.6 547,-566.6 541,-566.6"/>
<text text-anchor="middle" x="500" y="-551.6" font-family="Helvetica,sans-Serif" font-size="10.00">ModelSummary</text>
<text text-anchor="middle" x="500" y="-540.6" font-family="Helvetica,sans-Serif" font-size="10.00">analysis detection</text>
</g>
<!-- parser&#45;&gt;model -->
<g id="edge3" class="edge">
<title>parser&#45;&gt;model</title>
<path fill="none" stroke="black" d="M500,-643.25C500,-625.5 500,-597.64 500,-576.92"/>
<polygon fill="black" stroke="black" points="503.5,-576.82 500,-566.82 496.5,-576.82 503.5,-576.82"/>
<text text-anchor="middle" x="518" y="-613.4" font-family="Helvetica,sans-Serif" font-size="9.00"> &#160;detect</text>
</g>
<!-- mesh_builder -->
<g id="node6" class="node">
<title>mesh_builder</title>
<path fill="#fff176" stroke="black" d="M312,-566.6C312,-566.6 242,-566.6 242,-566.6 236,-566.6 230,-560.6 230,-554.6 230,-554.6 230,-542.6 230,-542.6 230,-536.6 236,-530.6 242,-530.6 242,-530.6 312,-530.6 312,-530.6 318,-530.6 324,-536.6 324,-542.6 324,-542.6 324,-554.6 324,-554.6 324,-560.6 318,-566.6 312,-566.6"/>
<text text-anchor="middle" x="277" y="-546.1" font-family="Helvetica,sans-Serif" font-size="10.00">mesh_builder.rs</text>
</g>
<!-- analysis&#45;&gt;mesh_builder -->
<g id="edge5" class="edge">
<title>analysis&#45;&gt;mesh_builder</title>
<path fill="none" stroke="black" d="M304.84,-643.25C299.54,-625.42 291.21,-597.38 285.04,-576.63"/>
<polygon fill="black" stroke="black" points="288.32,-575.41 282.12,-566.82 281.61,-577.4 288.32,-575.41"/>
<text text-anchor="middle" x="315.5" y="-613.4" font-family="Helvetica,sans-Serif" font-size="9.00">Step 1</text>
</g>
<!-- bc_builder -->
<g id="node7" class="node">
<title>bc_builder</title>
<path fill="#fff176" stroke="black" d="M90,-566.6C90,-566.6 36,-566.6 36,-566.6 30,-566.6 24,-560.6 24,-554.6 24,-554.6 24,-542.6 24,-542.6 24,-536.6 30,-530.6 36,-530.6 36,-530.6 90,-530.6 90,-530.6 96,-530.6 102,-536.6 102,-542.6 102,-542.6 102,-554.6 102,-554.6 102,-560.6 96,-566.6 90,-566.6"/>
<text text-anchor="middle" x="63" y="-546.1" font-family="Helvetica,sans-Serif" font-size="10.00">bc_builder.rs</text>
</g>
<!-- analysis&#45;&gt;bc_builder -->
<g id="edge6" class="edge">
<title>analysis&#45;&gt;bc_builder</title>
<path fill="none" stroke="black" d="M261.43,-652.07C219.35,-643.14 158.01,-626.31 111,-597.6 100.84,-591.39 91.22,-582.6 83.3,-574.24"/>
<polygon fill="black" stroke="black" points="85.84,-571.83 76.53,-566.77 80.65,-576.53 85.84,-571.83"/>
<text text-anchor="middle" x="183.5" y="-613.4" font-family="Helvetica,sans-Serif" font-size="9.00">Step 2</text>
</g>
<!-- mat_builder -->
<g id="node8" class="node">
<title>mat_builder</title>
<path fill="#fff176" stroke="black" d="M199.5,-566.6C199.5,-566.6 132.5,-566.6 132.5,-566.6 126.5,-566.6 120.5,-560.6 120.5,-554.6 120.5,-554.6 120.5,-542.6 120.5,-542.6 120.5,-536.6 126.5,-530.6 132.5,-530.6 132.5,-530.6 199.5,-530.6 199.5,-530.6 205.5,-530.6 211.5,-536.6 211.5,-542.6 211.5,-542.6 211.5,-554.6 211.5,-554.6 211.5,-560.6 205.5,-566.6 199.5,-566.6"/>
<text text-anchor="middle" x="166" y="-551.6" font-family="Helvetica,sans-Serif" font-size="10.00">materials.rs</text>
<text text-anchor="middle" x="166" y="-540.6" font-family="Helvetica,sans-Serif" font-size="10.00">MaterialLibrary</text>
</g>
<!-- analysis&#45;&gt;mat_builder -->
<g id="edge7" class="edge">
<title>analysis&#45;&gt;mat_builder</title>
<path fill="none" stroke="black" d="M285.54,-643.57C277.4,-637.87 268.3,-631.48 260,-625.6 242.59,-613.26 237.72,-610.85 221,-597.6 211.4,-589.99 201.2,-581.28 192.23,-573.39"/>
<polygon fill="black" stroke="black" points="194.51,-570.73 184.71,-566.71 189.87,-575.97 194.51,-570.73"/>
<text text-anchor="middle" x="275.5" y="-613.4" font-family="Helvetica,sans-Serif" font-size="9.00">Step 3</text>
</g>
<!-- assembly -->
<g id="node9" class="node">
<title>assembly</title>
<path fill="#ffe082" stroke="black" d="M178.5,-429.6C178.5,-429.6 117.5,-429.6 117.5,-429.6 111.5,-429.6 105.5,-423.6 105.5,-417.6 105.5,-417.6 105.5,-405.6 105.5,-405.6 105.5,-399.6 111.5,-393.6 117.5,-393.6 117.5,-393.6 178.5,-393.6 178.5,-393.6 184.5,-393.6 190.5,-399.6 190.5,-405.6 190.5,-405.6 190.5,-417.6 190.5,-417.6 190.5,-423.6 184.5,-429.6 178.5,-429.6"/>
<text text-anchor="middle" x="148" y="-414.6" font-family="Helvetica,sans-Serif" font-size="10.00">assembly.rs</text>
<text text-anchor="middle" x="148" y="-403.6" font-family="Helvetica,sans-Serif" font-size="10.00">GlobalSystem</text>
</g>
<!-- analysis&#45;&gt;assembly -->
<g id="edge11" class="edge">
<title>analysis&#45;&gt;assembly</title>
<path fill="none" stroke="black" d="M325.17,-643.56C329.1,-638.18 332.84,-631.96 335,-625.6 342.8,-602.66 350.14,-537.86 336,-522.6 320.25,-505.59 248.96,-530.39 232,-514.6 209.96,-494.08 239.95,-471.77 222,-447.6 218.59,-443.01 210.02,-437.85 199.87,-432.93"/>
<polygon fill="black" stroke="black" points="201.17,-429.68 190.63,-428.69 198.25,-436.04 201.17,-429.68"/>
<text text-anchor="middle" x="365.5" y="-551.4" font-family="Helvetica,sans-Serif" font-size="9.00">Step 4:</text>
<text text-anchor="middle" x="365.5" y="-541.4" font-family="Helvetica,sans-Serif" font-size="9.00">assemble</text>
</g>
<!-- modal -->
<g id="node11" class="node">
<title>modal</title>
<path fill="#ffe082" stroke="black" d="M315,-483.6C315,-483.6 245,-483.6 245,-483.6 239,-483.6 233,-477.6 233,-471.6 233,-471.6 233,-459.6 233,-459.6 233,-453.6 239,-447.6 245,-447.6 245,-447.6 315,-447.6 315,-447.6 321,-447.6 327,-453.6 327,-459.6 327,-459.6 327,-471.6 327,-471.6 327,-477.6 321,-483.6 315,-483.6"/>
<text text-anchor="middle" x="280" y="-468.6" font-family="Helvetica,sans-Serif" font-size="10.00">modal_solver.rs</text>
<text text-anchor="middle" x="280" y="-457.6" font-family="Helvetica,sans-Serif" font-size="10.00">ModalSolver</text>
</g>
<!-- analysis&#45;&gt;modal -->
<g id="edge12" class="edge">
<title>analysis&#45;&gt;modal</title>
<path fill="none" stroke="black" stroke-dasharray="5,2" d="M354.68,-643.5C374.52,-633.38 395.87,-618.4 407,-597.6 422.73,-568.21 425.2,-550.52 407,-522.6 391.36,-498.61 362.88,-484.83 336.85,-476.94"/>
<polygon fill="black" stroke="black" points="337.6,-473.52 327.02,-474.2 335.71,-480.26 337.6,-473.52"/>
<text text-anchor="middle" x="419" y="-618.4" font-family="Helvetica,sans-Serif" font-size="9.00">modal</text>
<text text-anchor="middle" x="419" y="-608.4" font-family="Helvetica,sans-Serif" font-size="9.00">analysis</text>
</g>
<!-- mesh_builder&#45;&gt;assembly -->
<g id="edge8" class="edge">
<title>mesh_builder&#45;&gt;assembly</title>
<path fill="none" stroke="black" d="M239.13,-530.58C232.77,-527.84 226.22,-525.09 220,-522.6 210.34,-518.73 205.29,-522.02 198,-514.6 175.94,-492.14 189.92,-475.32 175,-447.6 173.22,-444.3 171.14,-440.98 168.93,-437.77"/>
<polygon fill="black" stroke="black" points="171.68,-435.6 162.92,-429.63 166.05,-439.76 171.68,-435.6"/>
<text text-anchor="middle" x="210" y="-463.4" font-family="Helvetica,sans-Serif" font-size="9.00">Mesh</text>
</g>
<!-- bc_builder&#45;&gt;assembly -->
<g id="edge9" class="edge">
<title>bc_builder&#45;&gt;assembly</title>
<path fill="none" stroke="black" d="M68.18,-530.5C75.06,-509.59 88.63,-473.76 108,-447.6 110.87,-443.72 114.23,-439.97 117.77,-436.46"/>
<polygon fill="black" stroke="black" points="120.21,-438.96 125.17,-429.6 115.46,-433.83 120.21,-438.96"/>
<text text-anchor="middle" x="116.5" y="-463.4" font-family="Helvetica,sans-Serif" font-size="9.00">BCs</text>
</g>
<!-- mat_builder&#45;&gt;assembly -->
<g id="edge10" class="edge">
<title>mat_builder&#45;&gt;assembly</title>
<path fill="none" stroke="black" d="M145.47,-530.54C141.21,-525.86 137.32,-520.44 135,-514.6 124.04,-486.91 129.73,-476.91 135,-447.6 135.49,-444.88 136.17,-442.1 136.98,-439.35"/>
<polygon fill="black" stroke="black" points="140.35,-440.3 140.27,-429.7 133.73,-438.04 140.35,-440.3"/>
<text text-anchor="middle" x="155" y="-463.4" font-family="Helvetica,sans-Serif" font-size="9.00">Materials</text>
</g>
<!-- factory -->
<g id="node12" class="node">
<title>factory</title>
<path fill="#ffe082" stroke="black" d="M119.5,-290.8C119.5,-290.8 42.5,-290.8 42.5,-290.8 36.5,-290.8 30.5,-284.8 30.5,-278.8 30.5,-278.8 30.5,-266.8 30.5,-266.8 30.5,-260.8 36.5,-254.8 42.5,-254.8 42.5,-254.8 119.5,-254.8 119.5,-254.8 125.5,-254.8 131.5,-260.8 131.5,-266.8 131.5,-266.8 131.5,-278.8 131.5,-278.8 131.5,-284.8 125.5,-290.8 119.5,-290.8"/>
<text text-anchor="middle" x="81" y="-275.8" font-family="Helvetica,sans-Serif" font-size="10.00">factory.rs</text>
<text text-anchor="middle" x="81" y="-264.8" font-family="Helvetica,sans-Serif" font-size="10.00">DynamicElement</text>
</g>
<!-- assembly&#45;&gt;factory -->
<g id="edge13" class="edge">
<title>assembly&#45;&gt;factory</title>
<path fill="none" stroke="black" d="M105.29,-397.01C95.67,-391.87 86.64,-384.91 81,-375.6 67.46,-353.26 69.56,-322.78 73.75,-301"/>
<polygon fill="black" stroke="black" points="77.2,-301.61 75.91,-291.09 70.36,-300.11 77.2,-301.61"/>
<text text-anchor="middle" x="99.5" y="-368.4" font-family="Helvetica,sans-Serif" font-size="9.00">element</text>
<text text-anchor="middle" x="99.5" y="-358.4" font-family="Helvetica,sans-Serif" font-size="9.00">loop</text>
</g>
<!-- traits -->
<g id="node14" class="node">
<title>traits</title>
<path fill="#ce93d8" stroke="black" d="M329.23,-267.33C329.23,-267.33 329.23,-278.27 329.23,-278.27 329.23,-283.74 324.5,-291.96 319.77,-294.7 319.77,-294.7 298.72,-306.92 298.72,-306.92 293.99,-309.67 283.79,-312.42 278.32,-312.42 278.32,-312.42 243.68,-312.42 243.68,-312.42 238.21,-312.42 228.01,-309.67 223.28,-306.92 223.28,-306.92 202.23,-294.7 202.23,-294.7 197.5,-291.96 192.77,-283.74 192.77,-278.27 192.77,-278.27 192.77,-267.33 192.77,-267.33 192.77,-261.86 197.5,-253.64 202.23,-250.9 202.23,-250.9 223.28,-238.68 223.28,-238.68 228.01,-235.93 238.21,-233.18 243.68,-233.18 243.68,-233.18 278.32,-233.18 278.32,-233.18 283.79,-233.18 293.99,-235.93 298.72,-238.68 298.72,-238.68 319.77,-250.9 319.77,-250.9 324.5,-253.64 329.23,-261.86 329.23,-267.33"/>
<path fill="none" stroke="black" d="M333.24,-266.1C333.24,-266.1 333.24,-279.49 333.24,-279.49 333.24,-285.49 328.05,-294.51 322.86,-297.52 322.86,-297.52 300.72,-310.37 300.72,-310.37 295.53,-313.39 284.35,-316.4 278.35,-316.4 278.35,-316.4 243.65,-316.4 243.65,-316.4 237.65,-316.4 226.47,-313.39 221.28,-310.37 221.28,-310.37 199.14,-297.52 199.14,-297.52 193.95,-294.51 188.76,-285.49 188.76,-279.49 188.76,-279.49 188.76,-266.1 188.76,-266.1 188.76,-260.1 193.95,-251.09 199.14,-248.08 199.14,-248.08 221.28,-235.23 221.28,-235.23 226.47,-232.21 237.65,-229.2 243.65,-229.2 243.65,-229.2 278.35,-229.2 278.35,-229.2 284.35,-229.2 295.53,-232.21 300.72,-235.23 300.72,-235.23 322.86,-248.08 322.86,-248.08 328.05,-251.09 333.24,-260.1 333.24,-266.1"/>
<text text-anchor="middle" x="261" y="-286.8" font-family="Helvetica,sans-Serif" font-size="10.00">traits.rs</text>
<text text-anchor="middle" x="261" y="-275.8" font-family="Helvetica,sans-Serif" font-size="10.00">LinearSolver</text>
<text text-anchor="middle" x="261" y="-264.8" font-family="Helvetica,sans-Serif" font-size="10.00">EigenSolver</text>
<text text-anchor="middle" x="261" y="-253.8" font-family="Helvetica,sans-Serif" font-size="10.00">SolverBackend</text>
</g>
<!-- assembly&#45;&gt;traits -->
<g id="edge15" class="edge">
<title>assembly&#45;&gt;traits</title>
<path fill="none" stroke="#7b1fa2" stroke-width="2" d="M148.45,-393.13C149.45,-381.73 152.12,-366.92 159,-355.6 169.64,-338.09 185.46,-322.76 201.48,-310.24"/>
<polygon fill="#7b1fa2" stroke="#7b1fa2" stroke-width="2" points="203.96,-312.76 209.85,-303.96 199.75,-307.17 203.96,-312.76"/>
<text text-anchor="middle" x="208" y="-363.4" font-family="Helvetica,sans-Serif" font-size="9.00">solve_with_backend()</text>
</g>
<!-- io -->
<g id="node21" class="node">
<title>io</title>
<path fill="#bbdefb" stroke="black" d="M529,-290.8C529,-290.8 459,-290.8 459,-290.8 453,-290.8 447,-284.8 447,-278.8 447,-278.8 447,-266.8 447,-266.8 447,-260.8 453,-254.8 459,-254.8 459,-254.8 529,-254.8 529,-254.8 535,-254.8 541,-260.8 541,-266.8 541,-266.8 541,-278.8 541,-278.8 541,-284.8 535,-290.8 529,-290.8"/>
<text text-anchor="middle" x="494" y="-275.8" font-family="Helvetica,sans-Serif" font-size="10.00">DAT / FRD / VTK</text>
<text text-anchor="middle" x="494" y="-264.8" font-family="Helvetica,sans-Serif" font-size="10.00">result output</text>
</g>
<!-- assembly&#45;&gt;io -->
<g id="edge25" class="edge">
<title>assembly&#45;&gt;io</title>
<path fill="none" stroke="#1e88e5" stroke-dasharray="5,2" d="M178.6,-393.49C185.45,-390.34 192.83,-387.46 200,-385.6 270.67,-367.21 293.28,-393.81 364,-375.6 392.11,-368.36 399.44,-364.56 423,-347.6 442.29,-333.71 460.8,-314.2 474.08,-298.73"/>
<polygon fill="#1e88e5" stroke="#1e88e5" points="476.77,-300.96 480.52,-291.06 471.41,-296.46 476.77,-300.96"/>
<text text-anchor="middle" x="425.5" y="-363.4" font-family="Helvetica,sans-Serif" font-size="9.00">results</text>
</g>
<!-- sparse -->
<g id="node10" class="node">
<title>sparse</title>
<path fill="#ffe082" stroke="black" d="M315,-429.6C315,-429.6 221,-429.6 221,-429.6 215,-429.6 209,-423.6 209,-417.6 209,-417.6 209,-405.6 209,-405.6 209,-399.6 215,-393.6 221,-393.6 221,-393.6 315,-393.6 315,-393.6 321,-393.6 327,-399.6 327,-405.6 327,-405.6 327,-417.6 327,-417.6 327,-423.6 321,-429.6 315,-429.6"/>
<text text-anchor="middle" x="268" y="-414.6" font-family="Helvetica,sans-Serif" font-size="10.00">sparse_assembly.rs</text>
<text text-anchor="middle" x="268" y="-403.6" font-family="Helvetica,sans-Serif" font-size="10.00">SparseGlobalSystem</text>
</g>
<!-- sparse&#45;&gt;traits -->
<g id="edge16" class="edge">
<title>sparse&#45;&gt;traits</title>
<path fill="none" stroke="#7b1fa2" stroke-width="2" d="M264.52,-393.58C263.51,-387.89 262.53,-381.49 262,-375.6 260.57,-359.71 260.02,-342.38 259.92,-326.59"/>
<polygon fill="#7b1fa2" stroke="#7b1fa2" stroke-width="2" points="263.42,-326.47 259.9,-316.47 256.42,-326.47 263.42,-326.47"/>
<text text-anchor="middle" x="311" y="-363.4" font-family="Helvetica,sans-Serif" font-size="9.00">solve_with_backend()</text>
</g>
<!-- modal&#45;&gt;traits -->
<g id="edge17" class="edge">
<title>modal&#45;&gt;traits</title>
<path fill="none" stroke="#7b1fa2" stroke-width="2" d="M314.48,-447.53C322.26,-442.54 329.99,-436.52 336,-429.6 358.67,-403.5 374.73,-386.88 360,-355.6 351.47,-337.48 336.73,-322 321.19,-309.54"/>
<polygon fill="#7b1fa2" stroke="#7b1fa2" stroke-width="2" points="323.1,-306.59 313.03,-303.31 318.85,-312.16 323.1,-306.59"/>
<text text-anchor="middle" x="394" y="-409.4" font-family="Helvetica,sans-Serif" font-size="9.00">solve_eigen()</text>
</g>
<!-- elems -->
<g id="node13" class="node">
<title>elems</title>
<path fill="#ffe082" stroke="black" d="M138,-184C138,-184 36,-184 36,-184 30,-184 24,-178 24,-172 24,-172 24,-160 24,-160 24,-154 30,-148 36,-148 36,-148 138,-148 138,-148 144,-148 150,-154 150,-160 150,-160 150,-172 150,-172 150,-178 144,-184 138,-184"/>
<text text-anchor="middle" x="87" y="-163.5" font-family="Helvetica,sans-Serif" font-size="10.00">T3D2 | B31 | S4 | C3D8</text>
</g>
<!-- factory&#45;&gt;elems -->
<g id="edge14" class="edge">
<title>factory&#45;&gt;elems</title>
<path fill="none" stroke="black" d="M81.99,-254.49C82.92,-238.19 84.34,-213.49 85.43,-194.48"/>
<polygon fill="black" stroke="black" points="88.93,-194.51 86.01,-184.33 81.94,-194.11 88.93,-194.51"/>
</g>
<!-- nalgebra -->
<g id="node17" class="node">
<title>nalgebra</title>
<path fill="#b0bec5" stroke="black" d="M125,-54.5C125,-54.5 49,-54.5 49,-54.5 43,-54.5 37,-48.5 37,-42.5 37,-42.5 37,-30.5 37,-30.5 37,-24.5 43,-18.5 49,-18.5 49,-18.5 125,-18.5 125,-18.5 131,-18.5 137,-24.5 137,-30.5 137,-30.5 137,-42.5 137,-42.5 137,-48.5 131,-54.5 125,-54.5"/>
<text text-anchor="middle" x="87" y="-39.5" font-family="Helvetica,sans-Serif" font-size="10.00">nalgebra 0.34</text>
<text text-anchor="middle" x="87" y="-28.5" font-family="Helvetica,sans-Serif" font-size="10.00">DMatrix, DVector</text>
</g>
<!-- elems&#45;&gt;nalgebra -->
<g id="edge20" class="edge">
<title>elems&#45;&gt;nalgebra</title>
<path fill="none" stroke="#78909c" stroke-dasharray="1,5" d="M87,-147.8C87,-126.51 87,-89.98 87,-64.83"/>
<polygon fill="#78909c" stroke="#78909c" points="90.5,-64.83 87,-54.83 83.5,-64.83 90.5,-64.83"/>
<text text-anchor="middle" x="107" y="-108.8" font-family="Helvetica,sans-Serif" font-size="9.00">element</text>
<text text-anchor="middle" x="107" y="-98.8" font-family="Helvetica,sans-Serif" font-size="9.00">matrices</text>
</g>
<!-- native -->
<g id="node15" class="node">
<title>native</title>
<path fill="#e1bee7" stroke="black" d="M289,-186.5C289,-186.5 191,-186.5 191,-186.5 185,-186.5 179,-180.5 179,-174.5 179,-174.5 179,-157.5 179,-157.5 179,-151.5 185,-145.5 191,-145.5 191,-145.5 289,-145.5 289,-145.5 295,-145.5 301,-151.5 301,-157.5 301,-157.5 301,-174.5 301,-174.5 301,-180.5 295,-186.5 289,-186.5"/>
<text text-anchor="middle" x="240" y="-174.5" font-family="Helvetica,sans-Serif" font-size="10.00">native.rs</text>
<text text-anchor="middle" x="240" y="-163.5" font-family="Helvetica,sans-Serif" font-size="10.00">NativeBackend</text>
<text text-anchor="middle" x="240" y="-152.5" font-family="Helvetica,sans-Serif" font-size="10.00">(LU, Cholesky+Eigen)</text>
</g>
<!-- traits&#45;&gt;native -->
<g id="edge18" class="edge">
<title>traits&#45;&gt;native</title>
<path fill="none" stroke="#7b1fa2" d="M252.46,-229.17C250.27,-218.24 247.96,-206.71 245.93,-196.6"/>
<polygon fill="#7b1fa2" stroke="#7b1fa2" points="249.33,-195.77 243.94,-186.65 242.47,-197.14 249.33,-195.77"/>
</g>
<!-- petsc -->
<g id="node16" class="node">
<title>petsc</title>
<path fill="#e1bee7" stroke="black" stroke-dasharray="5,2" d="M399,-192C399,-192 331,-192 331,-192 325,-192 319,-186 319,-180 319,-180 319,-152 319,-152 319,-146 325,-140 331,-140 331,-140 399,-140 399,-140 405,-140 411,-146 411,-152 411,-152 411,-180 411,-180 411,-186 405,-192 399,-192"/>
<text text-anchor="middle" x="365" y="-180" font-family="Helvetica,sans-Serif" font-size="10.00">petsc.rs</text>
<text text-anchor="middle" x="365" y="-169" font-family="Helvetica,sans-Serif" font-size="10.00">PetscBackend</text>
<text text-anchor="middle" x="365" y="-158" font-family="Helvetica,sans-Serif" font-size="10.00">(KSP, SLEPc)</text>
<text text-anchor="middle" x="365" y="-147" font-family="Helvetica,sans-Serif" font-size="10.00">[feature: petsc]</text>
</g>
<!-- traits&#45;&gt;petsc -->
<g id="edge19" class="edge">
<title>traits&#45;&gt;petsc</title>
<path fill="none" stroke="#c62828" stroke-dasharray="5,2" d="M298.84,-233.67C309.98,-222.45 322.05,-210.28 332.8,-199.45"/>
<polygon fill="#c62828" stroke="#c62828" points="335.44,-201.76 340,-192.19 330.47,-196.82 335.44,-201.76"/>
</g>
<!-- native&#45;&gt;nalgebra -->
<g id="edge21" class="edge">
<title>native&#45;&gt;nalgebra</title>
<path fill="none" stroke="#546e7a" d="M215.54,-145.2C196.49,-129.73 169.45,-107.64 146,-88 135.64,-79.33 124.35,-69.7 114.45,-61.21"/>
<polygon fill="#546e7a" stroke="#546e7a" points="116.71,-58.54 106.85,-54.67 112.15,-63.84 116.71,-58.54"/>
</g>
<!-- nalgebra_sparse -->
<g id="node18" class="node">
<title>nalgebra_sparse</title>
<path fill="#b0bec5" stroke="black" d="M401,-54.5C401,-54.5 305,-54.5 305,-54.5 299,-54.5 293,-48.5 293,-42.5 293,-42.5 293,-30.5 293,-30.5 293,-24.5 299,-18.5 305,-18.5 305,-18.5 401,-18.5 401,-18.5 407,-18.5 413,-24.5 413,-30.5 413,-30.5 413,-42.5 413,-42.5 413,-48.5 407,-54.5 401,-54.5"/>
<text text-anchor="middle" x="353" y="-39.5" font-family="Helvetica,sans-Serif" font-size="10.00">nalgebra&#45;sparse 0.10</text>
<text text-anchor="middle" x="353" y="-28.5" font-family="Helvetica,sans-Serif" font-size="10.00">CsrMatrix, CooMatrix</text>
</g>
<!-- native&#45;&gt;nalgebra_sparse -->
<g id="edge22" class="edge">
<title>native&#45;&gt;nalgebra_sparse</title>
<path fill="none" stroke="#546e7a" d="M257.41,-145.36C277.21,-123.02 309.58,-86.5 331.08,-62.23"/>
<polygon fill="#546e7a" stroke="#546e7a" points="333.91,-64.32 337.92,-54.51 328.67,-59.67 333.91,-64.32"/>
</g>
<!-- nalgebra_lapack -->
<g id="node19" class="node">
<title>nalgebra_lapack</title>
<path fill="#b0bec5" stroke="black" d="M262.5,-54.5C262.5,-54.5 167.5,-54.5 167.5,-54.5 161.5,-54.5 155.5,-48.5 155.5,-42.5 155.5,-42.5 155.5,-30.5 155.5,-30.5 155.5,-24.5 161.5,-18.5 167.5,-18.5 167.5,-18.5 262.5,-18.5 262.5,-18.5 268.5,-18.5 274.5,-24.5 274.5,-30.5 274.5,-30.5 274.5,-42.5 274.5,-42.5 274.5,-48.5 268.5,-54.5 262.5,-54.5"/>
<text text-anchor="middle" x="215" y="-39.5" font-family="Helvetica,sans-Serif" font-size="10.00">nalgebra&#45;lapack 0.27</text>
<text text-anchor="middle" x="215" y="-28.5" font-family="Helvetica,sans-Serif" font-size="10.00">SymmetricEigen, LU</text>
</g>
<!-- native&#45;&gt;nalgebra_lapack -->
<g id="edge23" class="edge">
<title>native&#45;&gt;nalgebra_lapack</title>
<path fill="none" stroke="#546e7a" d="M236.15,-145.36C231.9,-123.7 225.04,-88.71 220.29,-64.48"/>
<polygon fill="#546e7a" stroke="#546e7a" points="223.69,-63.65 218.34,-54.51 216.83,-65 223.69,-63.65"/>
</g>
<!-- petsc_c -->
<g id="node20" class="node">
<title>petsc_c</title>
<path fill="#ffcdd2" stroke="black" stroke-dasharray="5,2" d="M570.5,-57C570.5,-57 449.5,-57 449.5,-57 443.5,-57 437.5,-51 437.5,-45 437.5,-45 437.5,-28 437.5,-28 437.5,-22 443.5,-16 449.5,-16 449.5,-16 570.5,-16 570.5,-16 576.5,-16 582.5,-22 582.5,-28 582.5,-28 582.5,-45 582.5,-45 582.5,-51 576.5,-57 570.5,-57"/>
<text text-anchor="middle" x="510" y="-45" font-family="Helvetica,sans-Serif" font-size="10.00">PETSc C Library</text>
<text text-anchor="middle" x="510" y="-34" font-family="Helvetica,sans-Serif" font-size="10.00">(MUMPS, SuperLU, PaStiX)</text>
<text text-anchor="middle" x="510" y="-23" font-family="Helvetica,sans-Serif" font-size="10.00">KSP + preconditioners</text>
</g>
<!-- petsc&#45;&gt;petsc_c -->
<g id="edge24" class="edge">
<title>petsc&#45;&gt;petsc_c</title>
<path fill="none" stroke="#c62828" stroke-dasharray="5,2" d="M393.65,-139.81C418.52,-117.94 454.43,-86.37 479.76,-64.09"/>
<polygon fill="#c62828" stroke="#c62828" points="482.39,-66.44 487.58,-57.21 477.76,-61.18 482.39,-66.44"/>
</g>
<!-- l1 -->
<g id="node22" class="node">
<title>l1</title>
<path fill="#ffe082" stroke="black" d="M657,-907.6C657,-907.6 583,-907.6 583,-907.6 580,-907.6 577,-904.6 577,-901.6 577,-901.6 577,-895.6 577,-895.6 577,-892.6 580,-889.6 583,-889.6 583,-889.6 657,-889.6 657,-889.6 660,-889.6 663,-892.6 663,-895.6 663,-895.6 663,-901.6 663,-901.6 663,-904.6 660,-907.6 657,-907.6"/>
<text text-anchor="middle" x="620" y="-896.7" font-family="Helvetica,sans-Serif" font-size="8.00">Existing</text>
</g>
<!-- l2 -->
<g id="node23" class="node">
<title>l2</title>
<path fill="#ce93d8" stroke="black" d="M657,-804.6C657,-804.6 583,-804.6 583,-804.6 580,-804.6 577,-801.6 577,-798.6 577,-798.6 577,-792.6 577,-792.6 577,-789.6 580,-786.6 583,-786.6 583,-786.6 657,-786.6 657,-786.6 660,-786.6 663,-789.6 663,-792.6 663,-792.6 663,-798.6 663,-798.6 663,-801.6 660,-804.6 657,-804.6"/>
<text text-anchor="middle" x="620" y="-793.7" font-family="Helvetica,sans-Serif" font-size="8.00">NEW backend</text>
</g>
<!-- l1&#45;&gt;l2 -->
<!-- l3 -->
<g id="node24" class="node">
<title>l3</title>
<path fill="#ffcdd2" stroke="black" stroke-dasharray="5,2" d="M657,-670.6C657,-670.6 583,-670.6 583,-670.6 580,-670.6 577,-667.6 577,-664.6 577,-664.6 577,-658.6 577,-658.6 577,-655.6 580,-652.6 583,-652.6 583,-652.6 657,-652.6 657,-652.6 660,-652.6 663,-655.6 663,-658.6 663,-658.6 663,-664.6 663,-664.6 663,-667.6 660,-670.6 657,-670.6"/>
<text text-anchor="middle" x="620" y="-659.7" font-family="Helvetica,sans-Serif" font-size="8.00">Optional</text>
</g>
<!-- l2&#45;&gt;l3 -->
</g>
</svg>
